# xmcd
#
# Track frame offsets: 
#        150
#        31365
#        39067
#        65727
#        106147
#        122245
#        142385
#        186160
#        200385
#        226200
#        236600
#        261565
#
# Disc length: 3700 seconds
#
# Revision: 0
# Processed by: cddbd v1.5.1PL2 Copyright (c) Steve Scherf et al.
# Submitted via: ExactAudioCopy v0.95a5
#
DISCID=af0e720c
DTITLE=Unbek annter Künstler - U nbekannter Titel
DYEAR=1900
DGENRE=A Cappella
TTITLE0=a
TTITLE1=a
TTITLE2=a
TTITLE3=a
TTITLE4=a
TTITLE5=a
TTITLE6=a
TTITLE7=a
TTITLE8=a
TTITLE9=a
TTITLE10=a
TTITLE11=a
EXTD=
EXTT0=
EXTT1=
EXTT2=
EXTT3=
EXTT4=
EXTT5=
EXTT6=
EXTT7=
EXTT8=
EXTT9=
EXTT10=
EXTT11=
PLAYORDER=
